<svg xmlns="http://www.w3.org/2000/svg" viewBox="0 0 659 163" xml:space="preserve">
    <path d="M536.572 1c1.994.516 3.56 1.033 5.298 1.606v119.047h-14.868v-7.506c-11.599 9.061-24.105 11.257-37.265 7.612-8.191-2.268-14.953-7.585-19.627-14.632-11.322-17.074-9.49-36.394 3.564-49.91C485.323 45.156 504.032 38.627 527 54.3V2.23c1.416-.167 2.558-.302 3.85-.833C532.714 1 534.429 1 536.572 1m-26.709 106.663c10.49-3.812 19.906-16.107 16.077-29.081-4.18-14.16-16.928-21.509-30.306-17.55-10.187 3.015-16.072 10.44-17.43 20.528-1.3 9.644 2.577 17.755 11.074 23.23 6.155 3.967 12.693 5.302 20.585 2.873zM37.466 164C37 125.204 37 86.408 37 47.306h14.81l.386 7.254c10.478-8.36 21.815-11.43 34.364-8.288 9.504 2.38 16.871 8.025 22.468 16.019 11.527 16.464 8.39 39.107-7.029 52.11-13.537 11.418-34.098 12.866-49.999-.406v49.536c-4.69.469-9.379.469-14.534.469m61.545-70.837c.33-3.394.621-6.792.996-10.181 1.05-9.502-6.762-19.142-17.884-22.413-8.578-2.522-19.781 1.785-25.174 9.667-8.06 11.78-5.727 21.597 1.952 30.887 4.972 6.016 14.798 9.773 23.807 6.96 7.64-2.384 12.547-7.438 16.303-14.92zM227.467 164c1.179-4.855 2.643-9.78 4.51-14.548 3.153-8.047 6.325-16.103 9.953-23.94 2.03-4.386.048-7.853-1.42-11.464C231.473 91.82 222.316 69.644 213.014 47c1.213 0 1.968-.05 2.716.008 4.765.367 10.624-.788 13.973 1.589 3.152 2.236 3.598 8.228 5.335 12.526a8283.076 8283.076 0 0 0 15.398 37.798c.166.405.714.653 1.378 1.23 3.753-9.12 7.514-18.1 11.146-27.132 3.162-7.86 6.108-15.808 9.342-23.637.429-1.036 1.967-2.212 3.05-2.274 4.465-.256 8.952-.107 14.29-.107-2.36 6.022-4.453 11.502-6.646 16.942a27624.659 27624.659 0 0 1-25.017 61.859c-4.757 11.714-9.602 23.392-14.385 35.096-.299.73-.4 1.54-.594 2.708-5.022.394-10.044.394-15.533.394z"/>
    <path d="M84.531 1C85 4.805 85 8.61 85 12.746H13.213V94H1.464C1 63.077 1 32.154 1 1h83.531zM660 159.531c-27.774.469-55.548.469-83.66.469v-11.85h71.595V67h11.601c.464 30.688.464 61.375.464 92.531zM190.315 121.98c-.923-2.283-1.38-4.548-1.841-6.834-23.845 15.074-44.053 7.873-55.285-6.676-10.82-14.015-12.76-33.715 2.531-51.46 6.513-7.557 15.883-11.016 25.732-11.886 10.033-.887 18.811 3.207 27.32 9.382l.34-7.195h14.545v74.686c-4.312 0-8.594 0-13.342-.018m-4.729-48.91c-6.019-11.9-18.949-15.264-28.23-12.054-12.71 4.397-19.17 15.667-17.125 26.687 2.526 13.61 11.213 21.01 24.42 21.13 16.361.147 30.286-18.9 20.935-35.764zM452.048 93.859c-4.07 14.948-13.299 24.17-27.788 28.488-17.54 5.229-39.623-4.651-46.49-22.636-8.243-21.59 1.962-44.335 21.631-51.902 16.194-6.23 37.092-.4 46.387 13.304 6.828 10.069 8.742 20.657 6.26 32.746M390 81.759c-2.588 17.772 16.039 30.312 29.717 26.263 14.464-4.281 20.878-17.203 17.796-29.76-2.821-11.498-13.736-19.051-25.064-18.144-10.528.844-20.821 8.587-22.449 21.64z"/>
    <path d="M565.7 111.203c-6.683-8.03-10.002-16.954-9.67-27.049.56-17.071 11.026-34.707 31.652-37.408 20.366-2.667 38.027 13.906 39.347 31.58.227 3.045.83 6.063 1.321 9.535h-56.802c-1.089 10.609 11.395 24.157 23.998 20.807 3.931-1.045 7.786-2.944 11.202-5.176 2.524-1.65 4.019-1.858 6.472.013 2.64 2.013 5.85 3.279 8.83 4.88-10.151 15.075-39.921 22.415-56.35 2.818m37.282-46.737c-11.686-8.224-26.49-2.61-30.282 11.477h40.412c-3.664-4.211-6.611-7.598-10.13-11.477zM313.609 75.875c-6.192 18.045 8.153 33.526 23.043 33.052 6.31-.2 12.083-2.502 16.273-7.466 2.493-2.953 4.701-2.81 7.444-.607 2.39 1.919 4.92 3.662 7.387 5.485-2.968 9.892-17.891 17.738-32.43 17.204-20.617-.758-32.823-12.54-37.117-28.869-5.218-19.846 5.137-38.722 21.124-45.831 17.236-7.665 37.426-2.93 48.973 12.614-3.532 2.753-7.004 5.627-10.703 8.173-.612.42-2.692-.23-3.288-1.004-11.204-14.583-34.565-9.79-40.706 7.25z"/>
</svg>
